# ProBuilder 5.0.4
# https://unity3d.com/unity/features/worldbuilding/probuilder
# 2022/5/3 ä¸‹åˆ 05:15:41

mtllib ./Stairs.mtl
o Stairs

g Stairs
v -5.703017 2.089128 -40.7556
v 14.29698 2.089128 -40.7556
v -5.703017 2.979127 -40.7556
v 14.29698 2.979127 -40.7556
v -5.703017 2.979127 -1.019662
v 14.29698 2.979127 -1.019662
v -5.703017 3.869128 -1.019662
v 14.29698 3.869128 -1.019662
v -5.703017 3.869128 0.804338
v 14.29698 3.869128 0.804338
v -5.703017 4.759128 0.804338
v 14.29698 4.759128 0.804338
v -5.703017 4.759128 2.628338
v 14.29698 4.759128 2.628338
v -5.703017 5.649127 2.628338
v 14.29698 5.649127 2.628338
v -5.703017 5.649127 4.452338
v 14.29698 5.649127 4.452338
v -5.703017 6.539127 4.452338
v 14.29698 6.539127 4.452338
v -5.703017 6.539127 6.276338
v 14.29698 6.539127 6.276338
v -5.703017 7.429128 6.276338
v 14.29698 7.429128 6.276338
v -5.703017 7.429128 8.100338
v 14.29698 7.429128 8.100338
v -5.703017 8.319127 8.100338
v 14.29698 8.319127 8.100338
v -5.703017 8.319127 9.924337
v 14.29698 8.319127 9.924337
v -5.703017 9.209127 9.924337
v 14.29698 9.209127 9.924337
v -5.703017 9.209127 11.74834
v 14.29698 9.209127 11.74834
v -5.703017 10.09913 11.74834
v 14.29698 10.09913 11.74834
v -5.703017 10.09913 13.57234
v 14.29698 10.09913 13.57234
v -5.703017 10.98913 13.57234
v 14.29698 10.98913 13.57234
v -5.703017 10.98913 37.11119
v 14.29698 10.98913 37.11119
v 14.29698 2.089128 -1.019662
v 14.29698 2.089128 0.8043375
v 14.29698 2.089128 2.628338
v 14.29698 2.089128 4.452338
v 14.29698 2.089128 6.276338
v 14.29698 2.089128 8.100338
v 14.29698 2.089128 9.924337
v 14.29698 2.089128 11.74834
v 14.29698 2.089128 13.57234
v 14.29698 2.089128 37.11119
v -5.703017 2.089128 -1.019662
v -5.703017 2.089128 0.8043375
v -5.703017 2.089128 2.628338
v -5.703017 2.089128 4.452338
v -5.703017 2.089128 6.276338
v -5.703017 2.089128 8.100338
v -5.703017 2.089128 9.924337
v -5.703017 2.089128 11.74834
v -5.703017 2.089128 13.57234
v -5.703017 2.089128 37.11119

vt 5.703017 2.089128
vt -14.29698 2.089128
vt 5.703017 2.979127
vt -14.29698 2.979127
vt 5.703017 -40.7556
vt -14.29698 -40.7556
vt 5.703017 -1.019662
vt -14.29698 -1.019662
vt 5.703017 3.869128
vt -14.29698 3.869128
vt 5.703017 0.804338
vt -14.29698 0.804338
vt 5.703017 4.759128
vt -14.29698 4.759128
vt 5.703017 2.628338
vt -14.29698 2.628338
vt 5.703017 5.649127
vt -14.29698 5.649127
vt 5.703017 4.452338
vt -14.29698 4.452338
vt 5.703017 6.539127
vt -14.29698 6.539127
vt 5.703017 6.276338
vt -14.29698 6.276338
vt 5.703017 7.429128
vt -14.29698 7.429128
vt 5.703017 8.100338
vt -14.29698 8.100338
vt 5.703017 8.319127
vt -14.29698 8.319127
vt 5.703017 9.924337
vt -14.29698 9.924337
vt 5.703017 9.209127
vt -14.29698 9.209127
vt 5.703017 11.74834
vt -14.29698 11.74834
vt 5.703017 10.09913
vt -14.29698 10.09913
vt 5.703017 13.57234
vt -14.29698 13.57234
vt 5.703017 10.98913
vt -14.29698 10.98913
vt 5.703017 37.11119
vt -14.29698 37.11119
vt 40.7556 2.089128
vt 1.019662 2.089128
vt 40.7556 2.979127
vt 1.019662 2.979127
vt -0.8043375 2.089128
vt -0.8043375 3.869128
vt 1.019662 3.869128
vt -2.628338 2.089128
vt -2.628338 4.759128
vt -0.8043375 4.759128
vt -4.452338 2.089128
vt -4.452338 5.649127
vt -2.628338 5.649127
vt -6.276338 2.089128
vt -6.276338 6.539127
vt -4.452338 6.539127
vt -8.100338 2.089128
vt -8.100338 7.429128
vt -6.276338 7.429128
vt -9.924337 2.089128
vt -9.924337 8.319127
vt -8.100338 8.319127
vt -11.74834 2.089128
vt -11.74834 9.209127
vt -9.924337 9.209127
vt -13.57234 2.089128
vt -13.57234 10.09913
vt -11.74834 10.09913
vt -37.11119 2.089128
vt -37.11119 10.98913
vt -13.57234 10.98913
vt -40.7556 2.089128
vt -1.019662 2.089128
vt -40.7556 2.979127
vt -1.019662 2.979127
vt 0.8043375 2.089128
vt 0.8043375 3.869128
vt -1.019662 3.869128
vt 2.628338 2.089128
vt 2.628338 4.759128
vt 0.8043375 4.759128
vt 4.452338 2.089128
vt 4.452338 5.649127
vt 2.628338 5.649127
vt 6.276338 2.089128
vt 6.276338 6.539127
vt 4.452338 6.539127
vt 8.100338 2.089128
vt 8.100338 7.429128
vt 6.276338 7.429128
vt 9.924337 2.089128
vt 9.924337 8.319127
vt 8.100338 8.319127
vt 11.74834 2.089128
vt 11.74834 9.209127
vt 9.924337 9.209127
vt 13.57234 2.089128
vt 13.57234 10.09913
vt 11.74834 10.09913
vt 37.11119 2.089128
vt 37.11119 10.98913
vt 13.57234 10.98913
vt 14.29698 2.089128
vt -5.703017 2.089128
vt 14.29698 10.98913
vt -5.703017 10.98913

vn 0 0 -1
vn 0 1 0
vn 1 0 0
vn -1 0 0
vn 0 0 1

usemtl Lit
f 6/48/3 8/51/3 10/50/3
f 10/50/3 12/54/3 14/53/3
f 14/53/3 16/57/3 18/56/3
f 18/56/3 20/60/3 22/59/3
f 22/59/3 24/63/3 26/62/3
f 26/62/3 28/66/3 30/65/3
f 30/65/3 32/69/3 34/68/3
f 34/68/3 36/72/3 38/71/3
f 38/71/3 40/75/3 42/74/3
f 9/81/4 7/82/4 5/79/4
f 13/84/4 11/85/4 9/81/4
f 17/87/4 15/88/4 13/84/4
f 21/90/4 19/91/4 17/87/4
f 25/93/4 23/94/4 21/90/4
f 29/96/4 27/97/4 25/93/4
f 33/99/4 31/100/4 29/96/4
f 37/102/4 35/103/4 33/99/4
f 41/105/4 39/106/4 37/102/4
f 4/4/1 2/2/1 1/1/1
f 1/1/1 3/3/1 4/4/1
f 6/8/2 4/6/2 3/5/2
f 3/5/2 5/7/2 6/8/2
f 8/10/1 6/4/1 5/3/1
f 5/3/1 7/9/1 8/10/1
f 10/12/2 8/8/2 7/7/2
f 7/7/2 9/11/2 10/12/2
f 12/14/1 10/10/1 9/9/1
f 9/9/1 11/13/1 12/14/1
f 14/16/2 12/12/2 11/11/2
f 11/11/2 13/15/2 14/16/2
f 16/18/1 14/14/1 13/13/1
f 13/13/1 15/17/1 16/18/1
f 18/20/2 16/16/2 15/15/2
f 15/15/2 17/19/2 18/20/2
f 20/22/1 18/18/1 17/17/1
f 17/17/1 19/21/1 20/22/1
f 22/24/2 20/20/2 19/19/2
f 19/19/2 21/23/2 22/24/2
f 24/26/1 22/22/1 21/21/1
f 21/21/1 23/25/1 24/26/1
f 26/28/2 24/24/2 23/23/2
f 23/23/2 25/27/2 26/28/2
f 28/30/1 26/26/1 25/25/1
f 25/25/1 27/29/1 28/30/1
f 30/32/2 28/28/2 27/27/2
f 27/27/2 29/31/2 30/32/2
f 32/34/1 30/30/1 29/29/1
f 29/29/1 31/33/1 32/34/1
f 34/36/2 32/32/2 31/31/2
f 31/31/2 33/35/2 34/36/2
f 36/38/1 34/34/1 33/33/1
f 33/33/1 35/37/1 36/38/1
f 38/40/2 36/36/2 35/35/2
f 35/35/2 37/39/2 38/40/2
f 40/42/1 38/38/1 37/37/1
f 37/37/1 39/41/1 40/42/1
f 42/44/2 40/40/2 39/39/2
f 39/39/2 41/43/2 42/44/2
f 6/48/3 43/46/3 2/45/3
f 2/45/3 4/47/3 6/48/3
f 10/50/3 44/49/3 43/46/3
f 43/46/3 6/48/3 10/50/3
f 14/53/3 45/52/3 44/49/3
f 44/49/3 10/50/3 14/53/3
f 18/56/3 46/55/3 45/52/3
f 45/52/3 14/53/3 18/56/3
f 22/59/3 47/58/3 46/55/3
f 46/55/3 18/56/3 22/59/3
f 26/62/3 48/61/3 47/58/3
f 47/58/3 22/59/3 26/62/3
f 30/65/3 49/64/3 48/61/3
f 48/61/3 26/62/3 30/65/3
f 34/68/3 50/67/3 49/64/3
f 49/64/3 30/65/3 34/68/3
f 38/71/3 51/70/3 50/67/3
f 50/67/3 34/68/3 38/71/3
f 42/74/3 52/73/3 51/70/3
f 51/70/3 38/71/3 42/74/3
f 3/78/4 1/76/4 53/77/4
f 53/77/4 5/79/4 3/78/4
f 5/79/4 53/77/4 54/80/4
f 54/80/4 9/81/4 5/79/4
f 9/81/4 54/80/4 55/83/4
f 55/83/4 13/84/4 9/81/4
f 13/84/4 55/83/4 56/86/4
f 56/86/4 17/87/4 13/84/4
f 17/87/4 56/86/4 57/89/4
f 57/89/4 21/90/4 17/87/4
f 21/90/4 57/89/4 58/92/4
f 58/92/4 25/93/4 21/90/4
f 25/93/4 58/92/4 59/95/4
f 59/95/4 29/96/4 25/93/4
f 29/96/4 59/95/4 60/98/4
f 60/98/4 33/99/4 29/96/4
f 33/99/4 60/98/4 61/101/4
f 61/101/4 37/102/4 33/99/4
f 37/102/4 61/101/4 62/104/4
f 62/104/4 41/105/4 37/102/4
f 41/110/5 62/108/5 52/107/5
f 52/107/5 42/109/5 41/110/5

